<?xml version="1.0" encoding="utf-8"?>
<!-- Generator: Adobe Illustrator 17.0.0, SVG Export Plug-In . SVG Version: 6.00 Build 0)  -->
<!DOCTYPE svg PUBLIC "-//W3C//DTD SVG 1.1//EN" "http://www.w3.org/Graphics/SVG/1.1/DTD/svg11.dtd">
<svg version="1.1" id="Layer_1" xmlns="http://www.w3.org/2000/svg" xmlns:xlink="http://www.w3.org/1999/xlink" x="0px" y="0px"
	 width="140px" height="180px" viewBox="0 0 140 180" enable-background="new 0 0 140 180" xml:space="preserve">
<path fill="#A9A9AD" d="M130.333,84.646h-10.569V49.433c0-27.258-22.997-49.434-51.264-49.434S17.236,22.175,17.236,49.433v35.214
	H6.667c-4.51,0-8.167,3.526-8.167,7.875v79.603c0,4.349,3.656,7.875,8.167,7.875h123.667c4.51,0,8.167-3.526,8.167-7.875V92.522
	C138.5,88.172,134.844,84.646,130.333,84.646z M46.402,49.433c0-11.749,9.913-21.309,22.098-21.309s22.098,9.559,22.098,21.309
	v35.214H46.402V49.433z"/>
</svg>
